# xmcd
#
# Track frame offsets: 
#        150
#        16602
#        31570
#        49260
#        59845
#
# Disc length: 965 seconds
#
# Revision: 0
# Processed by: cddbd v1.5PL3 Copyright (c) Steve Scherf et al.
# Submitted via: ExactAudioCopy v0.95a4
#
DISCID=3503c305
DTITLE=Blackall Rangers - Nullabor
DYEAR=1999
DGENRE=
TTITLE0=Bourbon, Beer And Whisky
TTITLE1=Cat Fishin'
TTITLE2=Nullarbor
TTITLE3=Home To The Country
TTITLE4=Red Light
EXTD=
EXTT0=
EXTT1=
EXTT2=
EXTT3=
EXTT4=
PLAYORDER=
